<?xml version="1.0" encoding="UTF-8"?>
<svg version="1.1" xmlns="http://www.w3.org/2000/svg" width="1024" height="1024">
<path d="M0 0 C337.92 0 675.84 0 1024 0 C1024 337.92 1024 675.84 1024 1024 C686.08 1024 348.16 1024 0 1024 C0 686.08 0 348.16 0 0 Z " fill="#F7F7F7" transform="translate(0,0)"/>
<path d="M0 0 C1.53888896 -0.00187031 3.07777745 -0.00417188 4.61666518 -0.00686532 C8.82945317 -0.01296317 13.04222125 -0.01285209 17.25501263 -0.01167095 C21.80542309 -0.01146642 26.35582724 -0.0169909 30.90623474 -0.02172852 C39.81787314 -0.03002597 48.72950492 -0.032783 57.64114686 -0.03334089 C64.89236559 -0.03381675 72.14358215 -0.03587496 79.39480019 -0.03904152 C99.98175653 -0.04784778 120.56870766 -0.05246126 141.1556659 -0.05171105 C142.26492069 -0.05167109 143.37417549 -0.05163113 144.51704407 -0.05158997 C145.62766426 -0.05154909 146.73828446 -0.0515082 147.88255981 -0.05146609 C165.85377757 -0.05106024 183.82497431 -0.06061432 201.79618599 -0.07472833 C220.27680144 -0.08912701 238.75740667 -0.09599651 257.23802787 -0.09513456 C267.60197926 -0.09480366 277.96590865 -0.09750324 288.32985497 -0.10831261 C297.16043309 -0.11746394 305.99097927 -0.11955533 314.82156011 -0.11280318 C319.3184372 -0.10956041 323.81525315 -0.10939892 328.31212425 -0.11815643 C374.14011232 -0.20180824 374.14011232 -0.20180824 393.57929993 4.38371277 C394.99541565 4.70686462 394.99541565 4.70686462 396.44013977 5.0365448 C410.46316666 8.34317123 423.44976468 12.62305181 435.82929993 20.13371277 C436.40132141 20.47805359 436.9733429 20.82239441 437.56269836 21.1771698 C472.17224185 42.16380787 496.67079008 74.36164008 506.47724915 113.73527527 C512.03439928 137.76030965 512.13064119 162.23864405 512.09074926 186.75850427 C512.08615807 190.9474635 512.09324108 195.13640719 512.09870911 199.32536316 C512.10753547 207.49982621 512.10571134 215.67425224 512.09988382 223.84871665 C512.09533953 230.50269554 512.0947663 237.15666415 512.09693146 243.81064415 C512.09723792 244.76307144 512.09754439 245.71549872 512.09786014 246.69678744 C512.09849969 248.63256215 512.09914812 250.56833685 512.09980533 252.50411155 C512.10548907 270.595945 512.09898206 288.68775808 512.08820459 306.77958819 C512.07927521 322.24684238 512.08081989 337.71406654 512.09004211 353.18132019 C512.10078699 371.21034987 512.1049354 389.23936174 512.09881759 407.26839417 C512.0981806 409.19737414 512.09755185 411.12635412 512.09693146 413.05533409 C512.09662291 414.00403712 512.09631436 414.95274015 512.09599645 415.93019176 C512.09428179 422.56171461 512.09715794 429.19322601 512.10189056 435.82474709 C512.10754672 443.92731174 512.10588503 452.02983773 512.09532908 460.13239805 C512.09013453 464.2531677 512.08790681 468.37387333 512.09462738 472.49464226 C512.16600143 520.25708479 512.16600143 520.25708479 507.57929993 541.19621277 C507.36096497 542.22456238 507.14263 543.25291199 506.91767883 544.31242371 C500.72123774 572.35208706 486.71326032 596.5766705 466.82929993 617.13371277 C466.21441711 617.80015808 465.5995343 618.46660339 464.96601868 619.15324402 C451.06479756 633.88232942 432.40561599 643.68321181 413.82929993 651.13371277 C412.8779718 651.52172058 411.92664368 651.90972839 410.94648743 652.30949402 C388.20086155 661.10220611 364.07629259 662.27521608 339.96040344 662.29434204 C338.44307295 662.29909084 336.92574369 662.30424404 335.40841579 662.30975968 C331.29195549 662.32347394 327.17550386 662.33119374 323.05902672 662.33773267 C319.51485522 662.34416513 315.97069753 662.35422561 312.42653477 662.36429333 C300.76367583 662.39739269 289.1008085 662.41909333 277.43791819 662.43749318 C274.39483907 662.44230172 271.35176027 662.44728331 268.30868149 662.4522984 C249.34474135 662.48327516 230.3807979 662.50991229 211.4168396 662.52671719 C207.03739924 662.53066556 202.65795893 662.53466872 198.27851868 662.53874207 C197.19026098 662.53975043 196.10200329 662.54075879 194.98076808 662.5417977 C177.38278788 662.55877627 159.78494896 662.59986592 142.18703759 662.65076505 C124.05303157 662.70277662 105.91909787 662.73168978 87.78501797 662.73891407 C77.63033446 662.74354576 67.47588266 662.7579731 57.3212738 662.79865837 C48.6675458 662.83329213 40.01409151 662.84676474 31.36029828 662.83423423 C26.96104083 662.82848498 22.56235969 662.83170976 18.16319275 662.86240387 C-10.06098992 663.04871359 -38.78849167 661.17819008 -65.17070007 650.13371277 C-65.86437683 649.84802429 -66.55805359 649.56233582 -67.27275085 649.26799011 C-103.22561051 634.16729957 -131.88879098 605.75932782 -146.98320007 569.75871277 C-156.93131021 544.89283794 -160.33579581 519.70750059 -160.30441284 493.09014893 C-160.30628676 491.6382526 -160.30858974 490.18635677 -160.31127816 488.73446172 C-160.31733107 484.78992528 -160.31727035 480.84541022 -160.31608379 476.9008702 C-160.31587811 472.62864798 -160.3214144 468.35643234 -160.32614136 464.08421326 C-160.33441308 455.73019641 -160.33719463 447.37618662 -160.33775374 439.02216602 C-160.33823063 432.22305308 -160.34029403 425.42394245 -160.34345436 418.62483025 C-160.35225211 399.30087968 -160.35687522 379.97693465 -160.35612389 360.65298206 C-160.35608393 359.61335904 -160.35604397 358.57373601 -160.35600281 357.50260925 C-160.35594149 355.94124569 -160.35594149 355.94124569 -160.35587893 354.34833943 C-160.3554729 337.49756274 -160.36503385 320.64680844 -160.37914117 303.79603822 C-160.39354929 286.44749549 -160.4004089 269.09896365 -160.3995474 251.75041479 C-160.39921691 242.02923888 -160.40189823 232.30808645 -160.41272545 222.58691597 C-160.42188913 214.30697077 -160.4239581 206.02705967 -160.41721603 197.74711157 C-160.4139799 193.53348077 -160.41378696 189.31991517 -160.42256927 185.10629082 C-160.51681868 136.82471877 -160.51681868 136.82471877 -155.17070007 115.13371277 C-154.98555847 114.38235046 -154.80041687 113.63098816 -154.60966492 112.8568573 C-148.21478252 87.82081654 -136.21900908 65.68249481 -118.17070007 47.13371277 C-117.35472351 46.25586121 -116.53874695 45.37800964 -115.69804382 44.47355652 C-104.2466252 32.48245395 -90.8253314 23.73856292 -76.17070007 16.13371277 C-74.79204773 15.4124823 -74.79204773 15.4124823 -73.38554382 14.67668152 C-50.75928099 3.66080394 -24.89638915 -0.02875661 0 0 Z " fill="#8374DB" transform="translate(337.1707000732422,173.8662872314453)"/>
<path d="M0 0 C6.13118419 5.19292722 10.52107422 10.904292 14.265625 17.99609375 C14.70003906 18.81335938 15.13445312 19.630625 15.58203125 20.47265625 C20.65557059 31.89253922 19.69592607 46.5919672 15.53125 58.1328125 C9.43211004 71.93117544 0.07922136 81.8471494 -13.703125 88.21875 C-27.94273492 93.66813918 -43.9036737 91.93314186 -57.55078125 85.88671875 C-58.94623056 85.25854587 -60.3410732 84.62901558 -61.734375 83.99609375 C-62.73855469 84.81851563 -63.74273438 85.6409375 -64.77734375 86.48828125 C-73.32393194 93.47109725 -81.94868265 100.31581927 -90.734375 106.99609375 C-93.46475713 109.07783688 -96.19354439 111.16166285 -98.921875 113.24609375 C-99.9886145 114.06074097 -99.9886145 114.06074097 -101.0769043 114.8918457 C-106.40027809 118.96245101 -111.69741191 123.06584132 -116.984375 127.18359375 C-117.73235352 127.7655249 -118.48033203 128.34745605 -119.25097656 128.94702148 C-122.72230038 131.64816917 -126.1904895 134.35313269 -129.65234375 137.06640625 C-130.82539905 137.98062503 -131.99856846 138.89469743 -133.171875 139.80859375 C-134.18121094 140.59878906 -135.19054687 141.38898438 -136.23046875 142.203125 C-138.734375 143.99609375 -138.734375 143.99609375 -141.734375 144.99609375 C-141.425 145.49109375 -141.115625 145.98609375 -140.796875 146.49609375 C-138.78648252 151.22642899 -138.55580415 156.15996025 -139.05859375 161.21484375 C-139.46830846 165.52627264 -139.8116635 169.75809193 -138.734375 173.99609375 C-135.91250109 177.35417786 -132.57479054 178.97276837 -128.68994141 180.921875 C-124.90195917 183.00266425 -121.51099633 185.67419526 -118.046875 188.24609375 C-116.49624521 189.37569594 -114.94414837 190.50328688 -113.390625 191.62890625 C-112.6171875 192.1899707 -111.84375 192.75103516 -111.046875 193.32910156 C-107.40157009 195.95686148 -103.72470233 198.53914845 -100.046875 201.12109375 C-94.64655502 204.91482009 -89.29493353 208.76527016 -83.984375 212.68359375 C-82.16753296 214.01687481 -80.349589 215.34862778 -78.53076172 216.67919922 C-77.31408554 217.57111976 -76.09962722 218.46607222 -74.88720703 219.36376953 C-73.11598403 220.67064106 -71.33332311 221.96014597 -69.546875 223.24609375 C-68.00966797 224.36757813 -68.00966797 224.36757813 -66.44140625 225.51171875 C-63.9526078 227.18598958 -63.9526078 227.18598958 -61.71484375 226.88671875 C-61.06128906 226.5928125 -60.40773438 226.29890625 -59.734375 225.99609375 C-58.41953125 225.42375 -58.41953125 225.42375 -57.078125 224.83984375 C-56.1396875 224.39640625 -55.20125 223.95296875 -54.234375 223.49609375 C-42.47256281 217.93831436 -25.75753739 217.57279979 -13.484375 221.93359375 C1.65793329 229.13173498 11.38736461 240.43005657 17.265625 255.99609375 C21.13086115 269.59696993 18.3722097 284.69526702 11.69140625 296.86328125 C3.60403643 309.26768531 -8.49501715 317.03463931 -22.8125 320.53125 C-38.04357259 322.95437518 -50.85795387 319.71928338 -63.51171875 311.10546875 C-73.78169313 303.26013494 -80.8436268 292.67572068 -83.734375 279.99609375 C-83.84765855 277.15789525 -83.75131002 274.37223743 -83.63842773 271.53466797 C-83.20534098 263.03537104 -83.20534098 263.03537104 -85.85253906 255.17431641 C-88.93521369 252.05032758 -92.73619108 250.14223073 -96.61181641 248.16113281 C-100.44715156 246.05597761 -103.86046583 243.35978314 -107.359375 240.74609375 C-117.90569947 233.08391268 -128.60798255 225.64164413 -139.31347656 218.2043457 C-143.03307706 215.61358441 -146.7380563 213.02122477 -150.34375 210.2734375 C-151.38015625 209.50128906 -152.4165625 208.72914063 -153.484375 207.93359375 C-155.05445313 206.74056641 -155.05445313 206.74056641 -156.65625 205.5234375 C-159.62642923 203.65906865 -159.62642923 203.65906865 -162.71484375 204.58984375 C-163.71128906 205.05390625 -164.70773437 205.51796875 -165.734375 205.99609375 C-166.80816406 206.40988281 -167.88195312 206.82367187 -168.98828125 207.25 C-171.19715339 208.12363892 -173.40548603 208.99864312 -175.61328125 209.875 C-187.67383038 214.20713717 -200.05033683 212.5576703 -211.734375 207.99609375 C-212.44851563 207.74214844 -213.16265625 207.48820313 -213.8984375 207.2265625 C-224.32943336 202.86958275 -232.90778824 192.93818267 -237.734375 182.99609375 C-238.05921875 182.33480469 -238.3840625 181.67351562 -238.71875 180.9921875 C-243.41373977 170.73850702 -243.78969943 155.49974855 -240.109375 144.87109375 C-239.36856895 143.22228584 -238.57733646 141.59508627 -237.734375 139.99609375 C-237.321875 139.16207031 -236.909375 138.32804688 -236.484375 137.46875 C-230.46520462 126.37090462 -220.79460134 117.18170809 -208.8125 112.96875 C-202.52431812 111.27156658 -196.40143715 110.7332347 -189.921875 110.68359375 C-189.22892334 110.6779541 -188.53597168 110.67231445 -187.82202148 110.66650391 C-180.41097929 110.77092217 -174.02271213 112.68976635 -167.234375 115.62109375 C-165.67203125 116.29011719 -165.67203125 116.29011719 -164.078125 116.97265625 C-163.3046875 117.31039062 -162.53125 117.648125 -161.734375 117.99609375 C-161.734375 117.33609375 -161.734375 116.67609375 -161.734375 115.99609375 C-159.89346795 114.43346335 -158.04896196 112.99014761 -156.109375 111.55859375 C-154.91218559 110.6570128 -153.71559119 109.7546413 -152.51953125 108.8515625 C-151.89578613 108.38282715 -151.27204102 107.9140918 -150.62939453 107.43115234 C-147.57195803 105.11581973 -144.55903361 102.74485582 -141.546875 100.37109375 C-141.01433105 99.95287354 -140.48178711 99.53465332 -139.93310547 99.10375977 C-136.58315525 96.46862073 -133.25526984 93.80741635 -129.93359375 91.13671875 C-124.92990888 87.1301877 -119.84549999 83.23909042 -114.734375 79.37109375 C-106.85498682 73.39267437 -99.02177677 67.35980475 -91.24414062 61.24951172 C-90.54611328 60.70311035 -89.84808594 60.15670898 -89.12890625 59.59375 C-88.51893799 59.11429932 -87.90896973 58.63484863 -87.28051758 58.14086914 C-85.734375 56.99609375 -85.734375 56.99609375 -83.734375 55.99609375 C-83.75532227 55.23578857 -83.77626953 54.4754834 -83.79785156 53.69213867 C-83.88188893 50.18942927 -83.93331123 46.68693298 -83.984375 43.18359375 C-84.01789063 41.98798828 -84.05140625 40.79238281 -84.0859375 39.56054688 C-84.24026246 25.40123201 -79.13441471 13.84642206 -69.671875 3.30859375 C-50.07579719 -14.92542484 -21.36225928 -15.6554843 0 0 Z " fill="#FDFDFD" transform="translate(606.734375,327.00390625)"/>
<path d="M0 0 C5.08395779 2.99741678 8.55583103 7.10476771 11 12.4375 C12.54646142 19.8605148 11.45642351 25.03598795 7.625 31.4375 C1.60601538 39.7893461 -5.13387058 47.58404956 -11.8125 55.41015625 C-15.42665146 59.6799236 -18.90532111 64.05022008 -22.375 68.4375 C-27.15201118 74.43742604 -31.97096606 80.4000257 -36.83203125 86.33203125 C-43.94502425 95.01494514 -51.04764797 103.70089758 -57.9375 112.5625 C-61.67204167 117.35802196 -65.52968079 122.0229248 -69.5 126.625 C-69.99725586 127.20386963 -70.49451172 127.78273926 -71.00683594 128.37915039 C-73.37481746 131.13229964 -75.75768041 133.86975761 -78.16796875 136.5859375 C-78.99941406 137.54757812 -79.83085937 138.50921875 -80.6875 139.5 C-81.79544922 140.75490234 -81.79544922 140.75490234 -82.92578125 142.03515625 C-84.57609999 144.31336218 -84.57609999 144.31336218 -84.40625 146.84375 C-83.02192505 150.325537 -80.91758104 153.00954364 -78.5625 155.875 C-78.07620117 156.48045654 -77.58990234 157.08591309 -77.08886719 157.7097168 C-73.02331484 162.73587588 -68.81655536 167.64094406 -64.58569336 172.52807617 C-61.26348264 176.3710982 -58.07733432 180.28695724 -54.9921875 184.32421875 C-50.37122422 190.3627239 -45.53985493 196.23871668 -40.73681641 202.13256836 C-36.06722313 207.86368043 -31.42549363 213.61122954 -26.875 219.4375 C-22.88584527 224.54341314 -18.83864142 229.59837962 -14.75 234.625 C-13.92181763 235.64376221 -13.92181763 235.64376221 -13.0769043 236.68310547 C-10.69980926 239.60204617 -8.31342271 242.51133439 -5.90234375 245.40234375 C-3.69334126 248.05548431 -1.53257429 250.74243812 0.625 253.4375 C1.07069336 253.96520996 1.51638672 254.49291992 1.97558594 255.03662109 C8.23627505 262.48972011 12.08963029 268.09535404 11.2890625 278.296875 C10.03448682 284.23027999 7.44934028 287.70437673 3.125 291.8125 C-2.63263583 295.55496329 -7.59630987 296.11642984 -14.375 295.4375 C-19.71229979 293.77506236 -22.68617121 291.57618596 -26.375 287.4375 C-26.93574219 286.83292969 -27.49648438 286.22835938 -28.07421875 285.60546875 C-32.66190186 280.58972596 -36.85583411 275.32145668 -41.01708984 269.95458984 C-44.43492853 265.57096793 -47.98533849 261.32570702 -51.625 257.125 C-55.44428119 252.7166033 -59.14454012 248.264145 -62.68359375 243.625 C-64.61630924 241.12541415 -66.61553477 238.6882929 -68.625 236.25 C-71.99812571 232.1487797 -75.29772291 227.99967424 -78.5625 223.8125 C-83.86143559 217.02787276 -89.32701808 210.38798367 -94.8125 203.75390625 C-102.36043831 194.62246994 -109.8291963 185.42330853 -117.1953125 176.14453125 C-119.00546939 173.89643317 -120.83625533 171.6699283 -122.6796875 169.44921875 C-123.2675 168.73701172 -123.8553125 168.02480469 -124.4609375 167.29101562 C-125.63027773 165.87529695 -126.80456387 164.46364512 -127.984375 163.05664062 C-133.20284734 156.72081595 -135.04350337 151.85686836 -134.87109375 143.55078125 C-133.9940624 138.04689162 -130.92137979 134.58442539 -127.375 130.4375 C-126.57964844 129.468125 -125.78429687 128.49875 -124.96484375 127.5 C-123.266428 125.44195062 -121.56068262 123.39490549 -119.8359375 121.359375 C-117.03716842 118.03639203 -114.32815628 114.65074499 -111.625 111.25 C-108.79346682 107.71058353 -105.92692833 104.20030539 -103.0625 100.6875 C-98.90241818 95.58377085 -94.79532604 90.44508103 -90.75 85.25 C-86.71532895 80.07366213 -82.54477965 75.03491148 -78.28417969 70.04345703 C-74.97042041 66.15766568 -71.75539624 62.20766858 -68.58203125 58.20703125 C-65.80626705 54.72381565 -62.99810099 51.26762797 -60.1875 47.8125 C-59.35871338 46.79349609 -59.35871338 46.79349609 -58.51318359 45.75390625 C-57.3749242 44.3545842 -56.23657677 42.95533377 -55.09814453 41.55615234 C-53.38600811 39.45103476 -51.67518031 37.34486134 -49.96484375 35.23828125 C-38.7546021 21.43153783 -38.7546021 21.43153783 -33.42578125 14.97265625 C-32.01861924 13.23313598 -30.642295 11.46834986 -29.29296875 9.68359375 C-21.74575413 -0.23024267 -12.574398 -5.57521293 0 0 Z " fill="#FCFCFD" transform="translate(365.375,346.5625)"/>
<path d="M0 0 C6.86474343 4.04684694 11.2885187 10.86411216 15.98583984 17.12304688 C18.74317946 20.7276623 21.64131105 24.21566654 24.53515625 27.7109375 C25.12723877 28.42813965 25.71932129 29.1453418 26.3293457 29.88427734 C30.44051407 34.85384637 34.59982138 39.78095961 38.77783203 44.69433594 C42.03241789 48.53048486 45.19581972 52.42873783 48.3203125 56.37109375 C51.13615516 59.90207106 53.99326942 63.39860296 56.84765625 66.8984375 C61.04318774 72.04799478 65.19447189 77.22770519 69.28515625 82.4609375 C73.15814069 87.41477085 77.09054836 92.31181355 81.0859375 97.16796875 C88.9744425 106.76753703 96.83259522 116.39893604 104.53515625 126.1484375 C104.95990234 126.68130371 105.38464844 127.21416992 105.82226562 127.76318359 C107.21279019 129.51114554 108.59355209 131.26645635 109.97265625 133.0234375 C110.41053467 133.57153076 110.84841309 134.11962402 111.29956055 134.68432617 C115.51644915 140.09815918 116.03770621 144.54302442 115.921875 151.296875 C114.82130234 159.41220872 107.40416819 165.74603268 102.20654297 171.7097168 C98.79469041 175.629617 95.54520307 179.62938139 92.41015625 183.7734375 C88.45518498 188.99928441 84.31894053 194.04191242 80.09765625 199.0546875 C77.35382319 202.33884461 74.72468509 205.70812976 72.09765625 209.0859375 C67.98119446 214.37467541 63.72608707 219.51934701 59.37255859 224.61401367 C56.33898342 228.17235936 53.44336593 231.80416124 50.6015625 235.515625 C45.91477646 241.48706884 41.02357801 247.29730014 36.1875 253.14794922 C29.90057378 260.75951444 23.68745128 268.42767199 17.53515625 276.1484375 C15.47665419 278.7311306 13.41673738 281.31249086 11.34765625 283.88671875 C10.25425837 285.25110964 9.16848063 286.62172805 8.09765625 288.00390625 C3.8825924 293.33859644 -0.30326304 295.63069754 -6.9453125 296.45703125 C-13.33424662 296.76126621 -17.41250155 295.91358021 -22.515625 291.96484375 C-27.71783128 287.11709642 -29.76385388 283.0177384 -30.21484375 275.8359375 C-29.68069342 263.63481952 -20.01623272 254.96808749 -12.46484375 246.1484375 C-7.04615406 239.63098404 -1.76919084 233.01045726 3.45336914 226.3359375 C6.94484629 221.88085399 10.5024763 217.48527686 14.09765625 213.11328125 C21.20706627 204.46577771 28.28059673 195.79280445 35.16015625 186.9609375 C39.11616719 181.88474782 43.20851759 176.95075645 47.39306641 172.06201172 C52.63401154 165.91090604 57.59829043 159.54468088 62.53515625 153.1484375 C63.15390625 152.45878906 63.77265625 151.76914062 64.41015625 151.05859375 C65.73443298 149.17851597 65.73443298 149.17851597 65.5390625 146.78515625 C64.19020645 143.24244094 61.97152122 140.73888247 59.47265625 137.9609375 C58.45728771 136.79778695 57.4429708 135.63371757 56.4296875 134.46875 C55.93162598 133.9005957 55.43356445 133.33244141 54.92041016 132.74707031 C53.10795272 130.65542927 51.3777482 128.50591448 49.66015625 126.3359375 C46.1526251 121.91182928 42.59958826 117.52669917 39.03515625 113.1484375 C35.43486585 108.72425619 31.84150579 104.29559982 28.28515625 99.8359375 C21.19245291 90.94798559 13.9307148 82.19675207 6.69995117 73.42114258 C2.6573223 68.51399705 -1.37720988 63.60048911 -5.3984375 58.67578125 C-6.80387857 56.95683914 -8.21287057 55.24079555 -9.625 53.52734375 C-13.93223606 48.29333026 -18.19074075 43.02209094 -22.40234375 37.7109375 C-23.11173096 36.82378052 -23.11173096 36.82378052 -23.83544922 35.91870117 C-29.62270268 28.58320501 -30.35772281 23.4790237 -29.46484375 14.1484375 C-27.59282142 7.46872147 -23.48386914 3.60693025 -17.6640625 0.046875 C-12.25762478 -2.16179405 -5.46713249 -1.8888033 0 0 Z " fill="#FDFCFD" transform="translate(679.46484375,345.8515625)"/>
<path d="M0 0 C0.33 0 0.66 0 1 0 C1.04581839 44.82515403 1.08103999 89.65030557 1.10213066 134.47547841 C1.10463195 139.77238929 1.10722061 145.06930013 1.10986328 150.36621094 C1.1103879 151.4206916 1.11091252 152.47517226 1.11145304 153.56160688 C1.120146 170.61596834 1.13590985 187.67031626 1.15430559 204.72466969 C1.17303552 222.23541827 1.18412326 239.74615977 1.18817699 257.25691795 C1.19091563 268.05433619 1.19955276 278.85171615 1.21583293 289.6491226 C1.22643802 297.06211396 1.22959267 304.47508566 1.22700275 311.88808405 C1.22572694 316.15935445 1.22762634 320.43055815 1.23841095 324.70181656 C1.2482389 328.6231183 1.24857396 332.54430932 1.24179779 336.46561646 C1.24096196 337.87370025 1.24341758 339.28179134 1.24976636 340.68986106 C1.37896495 371.15056286 -5.33997306 402.14774263 -22 428 C-22.66 428.33 -23.32 428.66 -24 429 C-22.60590645 424.3101263 -20.58011662 420.23803037 -18.1875 416 C-0.36668453 383.26625061 -0.86069844 345.39979702 -0.79939139 309.16620231 C-0.79129205 305.00696046 -0.77762807 300.84773614 -0.76467896 296.68850708 C-0.74304958 289.50242546 -0.72485654 282.31634196 -0.70907402 275.13024521 C-0.68625076 264.74067054 -0.65812607 254.35111538 -0.62875474 243.9615574 C-0.58123036 227.10051959 -0.53792571 210.23947374 -0.49731445 193.37841797 C-0.45788201 177.01057308 -0.41643755 160.64273529 -0.37231445 144.27490234 C-0.36959018 143.26405287 -0.36686591 142.2532034 -0.36405908 141.21172212 C-0.35037833 136.14000923 -0.33665831 131.06829644 -0.32291877 125.9965837 C-0.20919239 83.99773733 -0.10233099 41.99887558 0 0 Z " fill="#915BC4" transform="translate(847,337)"/>
<path d="M0 0 C-0.33 0.66 -0.66 1.32 -1 2 C-2.82910655 2.2888063 -4.66107434 2.5722186 -6.50390625 2.75390625 C-8.47646268 2.94838364 -10.44238503 3.21007391 -12.40381145 3.4957428 C-17.93557478 4.18697261 -23.46655904 4.23104979 -29.03511047 4.31420898 C-30.21982748 4.33486734 -31.40454448 4.3555257 -32.62516201 4.37681007 C-35.86796922 4.43141209 -39.11080059 4.48157919 -42.35372423 4.52869725 C-44.41513721 4.55887756 -46.47652417 4.59049454 -48.53791106 4.6224041 C-78.41206304 5.08021922 -108.28434248 5.11908876 -138.16139756 5.07177705 C-145.58954508 5.06034029 -153.01769295 5.0560836 -160.44584767 5.05223143 C-173.68078077 5.04528214 -186.91570737 5.03456644 -200.15063477 5.02050781 C-200.93122457 5.01968 -201.71181438 5.01885219 -202.51605842 5.01799929 C-207.27396303 5.01293376 -212.03186754 5.00777865 -216.78977203 5.00260353 C-224.04026777 4.99473071 -231.29076365 4.98700905 -238.54125977 4.97949219 C-239.33872449 4.97866406 -240.13618922 4.97783593 -240.95781954 4.97698271 C-254.23631078 4.96331777 -267.51480215 4.95355675 -280.79329854 4.94658184 C-288.92928213 4.94211598 -297.06524743 4.9341086 -305.20122246 4.92143703 C-311.38323904 4.91205037 -317.56524949 4.90767413 -323.74727249 4.9051857 C-326.28261949 4.90330711 -328.81796586 4.89969321 -331.35330772 4.89425278 C-334.79965562 4.88708519 -338.24595248 4.88599677 -341.69230652 4.88647461 C-343.20910492 4.88108217 -343.20910492 4.88108217 -344.75654572 4.87558079 C-345.67525053 4.87695514 -346.59395534 4.87832949 -347.54049969 4.87974548 C-348.33506122 4.87882369 -349.12962276 4.8779019 -349.94826192 4.87695217 C-352.20110986 4.9232212 -352.20110986 4.9232212 -355 6 C-355 5.34 -355 4.68 -355 4 C-356.91697937 4.14166357 -358.83357723 4.28849584 -360.75 4.4375 C-361.81734375 4.51871094 -362.8846875 4.59992187 -363.984375 4.68359375 C-366.43679962 4.94090773 -368.63921291 5.31812218 -371 6 C-371 5.34 -371 4.68 -371 4 C-371.95003906 4.17402344 -372.90007812 4.34804688 -373.87890625 4.52734375 C-378.59799017 5.2014986 -383.19778648 4.876078 -387.9375 4.5625 C-388.81212891 4.51029297 -389.68675781 4.45808594 -390.58789062 4.40429688 C-392.72564632 4.2757979 -394.86288669 4.13877359 -397 4 C-397 3.67 -397 3.34 -397 3 C-396.22354647 2.99826375 -395.44709294 2.9965275 -394.64711052 2.99473864 C-348.58495017 2.89161582 -302.5228039 2.78348331 -256.46067059 2.66888306 C-250.92470822 2.65511418 -245.38874574 2.64138698 -239.8527832 2.62768555 C-238.75071501 2.62495724 -237.64864683 2.62222894 -236.51318263 2.61941796 C-218.68999292 2.57539377 -200.86679705 2.53474265 -183.04359657 2.49534739 C-164.74295425 2.45482138 -146.44232332 2.41064897 -128.14169782 2.36312145 C-116.85755888 2.33393008 -105.57342066 2.30755198 -94.28926682 2.28482103 C-86.54173497 2.26894129 -78.79421702 2.24950614 -71.04670066 2.22733159 C-66.58293311 2.21465885 -62.119176 2.2034995 -57.65539551 2.19658089 C-53.55703389 2.19019379 -49.45870862 2.17927481 -45.36036723 2.1649667 C-43.88901527 2.16059149 -42.41765748 2.15778502 -40.94629932 2.15683801 C-33.1985737 2.15090475 -25.48018204 1.98477978 -17.74431515 1.55261135 C-16.6713594 1.49466969 -16.6713594 1.49466969 -15.57672778 1.43555749 C-10.24343336 1.10839672 -5.35779467 -0.12176806 0 0 Z " fill="#D4C3E5" transform="translate(720,833)"/>
<path d="M0 0 C4.09973878 6.14960817 1.90820821 14.96138634 1 22 C0.01 22 -0.98 22 -2 22 C-3.65503095 23.0772721 -3.65503095 23.0772721 -5.1875 24.5 C-6.5796875 25.7375 -6.5796875 25.7375 -8 27 C-6.84906095 24.50629873 -5.57651836 22.39124515 -4 20.125 C0.25620566 13.47467866 0.24605294 7.68231951 0 0 Z " fill="#7592D6" transform="translate(376,358)"/>
<path d="M0 0 C4.72277228 1.83663366 4.72277228 1.83663366 6.75 3.03125 C9.76045739 4.32741916 12.48714667 4.4292288 15.75 4.625 C16.92046875 4.69976563 18.0909375 4.77453125 19.296875 4.8515625 C20.63492188 4.92503906 20.63492188 4.92503906 22 5 C19.56643297 7.43356703 18.39011154 7.66439355 15 8 C12.24609375 7.36328125 12.24609375 7.36328125 9.4375 6.3125 C8.50808594 5.97863281 7.57867188 5.64476562 6.62109375 5.30078125 C3.80775768 3.90459509 2.08262918 2.32764438 0 0 Z " fill="#8A58BD" transform="translate(655,637)"/>
<path d="M0 0 C0.33 0 0.66 0 1 0 C1.4375 2.625 1.4375 2.625 1 6 C-1.0949488 8.33122122 -3.46073827 10.17328621 -6 12 C-6.66 11.67 -7.32 11.34 -8 11 C-6.8553125 9.6696875 -6.8553125 9.6696875 -5.6875 8.3125 C-3.48524764 5.68601772 -1.73909127 2.95645515 0 0 Z " fill="#896BC9" transform="translate(376,627)"/>
<path d="M0 0 C1.20779006 2.85477649 1.01121976 3.96898066 -0.0625 6.9375 C-2.34412991 10.54394727 -4.61343698 12.4412635 -8 15 C-6.29231921 11.44961249 -4.25801816 8.20601621 -2.12109375 4.90234375 C-0.84878807 2.89506996 -0.84878807 2.89506996 0 0 Z " fill="#915EC4" transform="translate(795,497)"/>
<path d="M0 0 C0.66 0.33 1.32 0.66 2 1 C0.515 7.435 0.515 7.435 -1 14 C-1.33 14 -1.66 14 -2 14 C-2.1799928 8.78020872 -1.97094808 4.92737019 0 0 Z " fill="#A069CC" transform="translate(841,720)"/>
<path d="M0 0 C0.66 0 1.32 0 2 0 C2 2.31 2 4.62 2 7 C1.01 7.33 0.02 7.66 -1 8 C-1.04241723 5.66705225 -1.04092937 3.33297433 -1 1 C-0.67 0.67 -0.34 0.34 0 0 Z " fill="#8E57C8" transform="translate(624,609)"/>
</svg>
